PathFileType	4	(X/Y/Z)	C:/Users/beibeiliu/ov580/test_trc\sequence.37_training_dense_left.trc
DataRate	CameraRate	NumFrames	NumMarkers	Units	OrigDataRate	OrigDataStartFrame	OrigNumFrames
120	120	18	19	mm	120	127	152
Frame#	Time	ThumbCMC			ThumbMCP			ThumbIP			ThumbTip			IndexMCP			IndexPIP			IndexTip			MiddleMCP			MiddlePIP			MiddleTip			RingMCP			RingPIP			RingTip			PinkyMCP			PinkyPIP			PinkyTip			BackHand1			BackHand2			BackHand3	
		X0	Y0	Z0	X1	Y1	Z1	X2	Y2	Z2	X3	Y3	Z3	X4	Y4	Z4	X5	Y5	Z5	X6	Y6	Z6	X7	Y7	Z7	X8	Y8	Z8	X9	Y9	Z9	X10	Y10	Z10	X11	Y11	Z11	X12	Y12	Z12	X13	Y13	Z13	X14	Y14	Z14	X15	Y15	Z15	X16	Y16	Z16	X17	Y17	Z17	X18	Y18	Z18	
126	1.05	-178.704	47.7477	49.608	-166.48	61.5957	33.8836	-159.803	73.9969	9.72422	-154.731	82.3662	-3.04746	-148.662	54.354	-11.1051	-133.083	65.8925	-17.3831	-109.105	78.2945	-22.548	-131.676	37.8752	-2.81194	-112.297	57.8017	-1.19455	-94.2534	73.7597	17.1039	-116.553	24.8823	1.8883	-102.085	40.4208	1.38669	-87.633	56.1566	4.57176	-117.162	-1.36187	15.6643	-105.564	5.15952	3.44948	-85.5842	9.91366	-6.15186	-158.741	0.484984	25.4064	-171.824	-3.27465	53.9852	-180.406	16.4121	33.6192	
127	1.05833	-181.689	46.752	48.4644	-170.539	65.2927	31.987	-161.206	69.9573	11.2102	-157.444	82.9029	-7.44824	-139.05	52.2432	-5.5018	-121.834	66.2212	-6.34926	-97.223	79.3625	2.49906	-124.385	42.6497	0.863141	-104.098	57.5047	11.9816	-96.1406	69.5947	39.6675	-115.09	23.7655	6.8705	-97.1721	38.1814	11.2645	-87.2315	61.4354	24.1323	-115.568	-2.86769	20.6423	-96.6865	2.04885	12.8454	-79.5544	18.6455	7.20362	-160.7	1.34744	30.5252	-174.051	-3.53659	47.755	-178.946	16.7237	31.512	
128	1.06667	-179.44	51.4813	47.1107	-166.065	68.3675	30.515	-154.519	73.8907	9.57003	-147.191	83.9479	-3.48336	-133.663	50.9688	-2.93203	-108.628	64.1481	0.612659	-95.249	76.2439	17.324	-117.281	38.2521	2.61267	-96.6727	53.6974	14.2239	-97.2913	59.7236	45.2775	-111.219	21.659	8.78115	-94.4905	35.322	16.4581	-92.0719	54.0185	40.5557	-119.117	-0.158855	21.2806	-94.1082	7.30991	17.8438	-84.6278	31.8932	23.9166	-159.28	4.58795	27.7429	-178.705	0.229607	47.7358	-182.081	24.6291	31.4329	
129	1.075	-169.873	62.1729	46.2012	-151.736	74.5371	31.3233	-137.29	79.2579	9.90404	-127.113	84.1827	0.655784	-125.337	53.4156	-2.83362	-94.5052	58.0712	4.16476	-86.089	64.2759	26.6928	-114.345	30.689	1.48439	-88.2321	41.6846	14.2302	-92.4998	47.1717	44.8475	-111.014	15.7754	9.3537	-89.7428	25.309	20.802	-93.2215	38.5738	45.6673	-120.693	-2.94268	20.0285	-96.8672	7.34435	19.7294	-89.7083	28.0967	35.818	-162.378	11.8654	26.067	-182.031	14.1217	43.7902	-175.761	38.609	28.2464	
130	1.08333	-152.668	71.862	46.5931	-131.52	82.0368	32.1359	-114.251	82.4523	16.8715	-99.3929	84.9466	5.06974	-113.613	50.6242	-1.94448	-84.4701	40.9599	2.70036	-80.3322	44.3498	32.8387	-109.947	29.0179	-0.977422	-83.1517	24.176	9.92379	-86.887	30.8636	40.6704	-118.023	9.76606	8.72466	-89.3674	15.1404	21.15	-94.6548	24.9533	47.3777	-125.288	-0.743736	18.1698	-102.772	0.52738	21.6674	-95.7021	14.0567	43.0372	-161.051	21.5153	22.9901	-178.48	29.9602	44.4552	-167.393	52.7343	31.4019	
131	1.09167	-137.427	76.4538	52.2106	-113.997	82.5137	38.8357	-96.3482	81.3154	25.4524	-78.8776	72.9389	13.7838	-106.119	41.986	-1.56619	-84.7536	26.5439	-1.44024	-80.2618	24.7739	28.5401	-110.878	22.2277	-2.96112	-86.8341	8.1359	6.3224	-89.3916	13.5011	39.4487	-123.127	7.91902	7.36791	-98.3132	-3.02205	16.4045	-96.9065	4.56725	42.3664	-135.735	3.25231	18.3716	-114.623	-8.7537	21.034	-101.654	-0.400915	44.757	-161.141	32.7928	28.6389	-173.983	48.8163	44.7524	-155.39	62.6271	34.8676	
132	1.1	-122.409	78.1655	55.7963	-96.0962	81.1253	44.9524	-80.4504	73.975	30.3592	-65.7688	63.5115	22.2255	-107.482	38.4818	1.79853	-92.5717	14.6386	-2.00959	-84.8289	12.1113	26.1292	-116.328	21.6932	-3.28637	-100.394	-1.85833	1.08046	-96.3247	-0.515436	34.9299	-130.024	14.4315	4.74315	-113.284	-7.76741	9.88397	-103.625	-5.49069	34.2605	-146.971	11.5142	18.369	-130.27	-7.22921	14.9735	-115.941	-9.48326	36.1537	-154.454	44.588	31.2781	-166.622	64.4377	52.2634	-139.912	69.9697	34.9724	
133	1.10833	-107.247	77.9892	61.5393	-85.8151	75.119	53.8913	-71.8142	63.5263	38.6737	-55.9477	49.9127	24.6918	-107.509	40.7602	5.39613	-102.861	13.8596	-3.31761	-95.4681	3.32893	24.806	-125.33	28.7383	-0.648051	-113.513	2.23619	-6.48263	-110.823	-12.7036	22.0591	-146.21	25.6534	9.2382	-132.12	1.63596	1.18412	-119.659	-12.1124	24.3934	-161.332	25.3905	22.0166	-155.39	4.86625	9.40008	-137.585	-8.70797	19.3516	-153.093	60.2523	39.174	-157.288	76.372	57.6476	-132.468	76.0842	44.1603	
134	1.11667	-100.393	74.5941	69.0515	-80.4783	64.7294	53.5672	-67.7542	54.6796	39.2852	-55.395	42.5505	28.0721	-110.224	41.7631	7.95441	-106.137	13.0658	-4.03836	-108.65	-3.03244	17.2342	-127.923	37.4467	1.41323	-129.935	12.954	-12.1728	-123.526	-15.7667	6.34243	-150.601	39.1535	11.7443	-146.232	14.895	-3.78234	-141.41	-11.7185	7.09958	-167.114	42.3656	23.7948	-166.126	24.7865	7.62877	-158.953	3.00697	5.88453	-147.706	65.3217	42.1258	-144.873	84.4708	59.6123	-121.011	79.352	47.0624	
135	1.125	-94.1682	73.0673	73.2028	-74.9999	62.4793	58.6177	-64.632	49.1227	39.4036	-51.483	38.6448	27.798	-111.317	37.8442	7.00193	-117.119	13.4722	-4.22723	-119.864	-10.2525	9.49172	-130.244	39.9765	4.76436	-133.725	20.089	-11.9769	-143.53	-13.8156	-12.3223	-147.047	44.0615	12.2826	-155.923	25.5253	-5.71343	-154.665	1.95322	-11.7307	-163.466	50.6809	32.3397	-174.021	39.5853	11.5701	-178.46	24.7141	-1.24266	-140.71	72.2467	46.9633	-141.641	86.6737	64.8517	-114.488	78.9513	51.9095	
136	1.13333	-93.3559	65.1567	70.0734	-72.641	54.8133	55.5147	-62.2674	44.3749	42.2724	-51.7452	32.5234	26.844	-110.149	32.3756	8.48396	-117.793	13.1116	-4.84379	-124.201	-10.7029	-6.36712	-130.726	37.628	5.56354	-136.029	21.1708	-12.0642	-144.947	-0.160339	-28.8309	-150.102	45.4492	17.0627	-156.144	34.7814	-0.306407	-165.135	20.1755	-20.2644	-166.053	53.2577	30.1227	-176.699	48.7151	18.4011	-185.006	42.9807	-2.0085	-135.692	72.3452	50.8764	-135.169	87.5926	67.7749	-112.357	76.1999	53.2114	
137	1.14167	-90.8507	60.1704	71.3597	-71.2522	47.2666	60.2186	-65.0311	32.9944	40.948	-54.7867	21.3032	27.9907	-105.699	31.0028	11.9689	-108.257	9.92853	-4.20894	-113.622	-8.85074	-16.2693	-127.352	38.3201	8.43652	-132.956	25.4619	-13.5686	-144.133	17.7534	-33.9958	-148.891	48.5341	17.6448	-156.647	41.4984	-0.846725	-160.572	36.1194	-24.2063	-162.371	55.4011	31.1123	-174.173	54.546	17.7223	-179.208	58.7551	4.53258	-132.837	71.8063	49.8784	-130.003	84.4978	70.6383	-105.457	73.1023	53.6982	
138	1.15	-90.0752	49.5885	77.2072	-75.5997	32.1305	63.3857	-65.1689	16.9716	42.2421	-57.756	5.09746	32.2786	-100.384	28.6374	9.16454	-104.179	13.6598	-8.84007	-103.982	-1.74526	-26.1991	-125.128	41.5553	2.16146	-127.933	32.6426	-18.2127	-134.116	30.4621	-39.6883	-141.432	51.7933	15.2338	-147.18	47.807	-6.4102	-155.676	47.7996	-25.0938	-157.309	57.2338	26.501	-169.343	61.5884	15.7751	-172.143	68.6458	4.94081	-131.769	69.4503	46.414	-125.847	80.0508	74.2711	-102.137	66.4229	55.5474	
139	1.15833	-90.9992	36.665	73.939	-81.7031	16.5349	58.7209	-78.4118	3.31815	39.9809	-74.2606	-8.16504	28.6517	-94.9405	33.53	6.59955	-95.104	22.6038	-15.7761	-98.2215	13.7863	-32.8504	-123.259	50.4495	-1.21353	-123.818	45.5886	-20.3387	-128.807	38.5226	-45.8811	-140.358	56.0517	10.5918	-146.592	54.8745	-14.4232	-149.669	46.9568	-35.2361	-157.985	56.7191	28.011	-167.368	59.1918	15.7403	-171.964	72.9875	5.46823	-130.729	65.5426	52.2758	-129.304	73.6969	71.1952	-106.623	62.6926	61.0054	
140	1.16667	-97.0778	30.6741	66.1332	-90.0419	7.75357	51.3065	-88.6868	-5.58169	30.511	-89.0341	-19.4004	12.4417	-99.8635	42.5716	0.922276	-98.5612	35.1858	-25.8664	-102.834	21.3838	-43.2392	-121.351	53.371	-1.47961	-127.122	49.2785	-29.4934	-135.082	25.152	-49.0068	-140.011	57.7446	6.28102	-146.194	49.5252	-22.3262	-149.865	27.6056	-33.014	-163.884	49.3455	17.0679	-167.702	47.385	10.0384	-164.438	55.3602	7.22902	-134.796	62.1082	47.2008	-132.716	66.4237	74.039	-106.048	59.4128	54.8743	
141	1.175	-100.707	23.4828	57.4021	-100.721	1.39874	38.6357	-98.6855	-13.7128	19.7005	-108.172	-22.8466	3.50622	-102.846	37.1734	-6.17914	-105.759	29.4308	-31.9953	-114.122	2.95805	-45.2947	-127.5	45.7618	-12.3885	-131.706	24.8307	-38.9335	-140.817	-2.23342	-33.1882	-148.386	46.9507	-8.99721	-153.773	26.0139	-24.0922	-154.947	2.78949	-12.86	-168.293	42.4421	3.1879	-166.217	20.6674	2.88089	-149.539	35.9073	22.1878	-138.876	58.0596	33.5193	-137.41	63.7044	59.7564	-113.915	53.5928	47.0535	
142	1.18333	-102.953	24.6679	54.1427	-106.413	0.51717	35.8001	-109.843	-15.8085	17.7413	-123.217	-25.2719	1.86932	-109.693	31.0669	-14.468	-121.761	13.3295	-35.3026	-132.987	-10.5198	-29.9955	-131.618	31.9775	-21.0622	-145.443	8.06262	-30.6654	-151.767	-9.17652	-1.71066	-150.031	36.5948	-12.5517	-160.944	10.9188	-15.6295	-153.338	-2.9041	10.6869	-169.97	38.0419	-1.83155	-167.101	14.8793	2.23148	-155.251	16.4011	27.0874	-137.897	61.9383	26.7886	-137.939	70.1066	50.7284	-114.698	57.2569	39.7797	
143	1.19167	-105.74	31.2421	51.118	-112.125	5.30543	38.8127	-115.907	-13.5096	25.3289	-130.242	-25.6029	10.9614	-116.722	26.1914	-15.3812	-131.167	5.74042	-28.8556	-143.456	-13.2998	-9.89861	-141.926	30.5766	-21.0094	-156.391	4.89586	-18.9295	-154.926	-3.56412	12.2836	-155.909	39.4948	-11.9987	-168.593	11.498	-7.89297	-164.073	3.773	14.4749	-171.355	48.8519	0.451153	-174.792	22.5667	0.016746	-163.792	14.994	25.7697	-135.813	68.2559	20.7343	-136.615	78.0971	47.1385	-115.981	60.9986	35.7402	
